# xmcd
#
# Track frame offsets:
#	150
#	10432
#	19422
#	32584
#	40941
#	53392
#	64067
#	73513
#	83443
#	92442
#	106146
#	118937
#	127266
#	142298
#	155498
#
# Disc length: 2214 seconds
#
# Revision: 1
# Processed by: cddbd v1.5.2PL0 Copyright (c) Steve Scherf et al.
# Submitted via: EasyCDDAExtractor 16.0.8.2
#
DISCID=c808a40f
DTITLE=Άνευ ερμηνευτού - Δέκα πέντε Εσπερινοί-Μ. Χατζιδάκις
DYEAR=1998
DGENRE=Ορχηστρική
TTITLE0=Τα παιδιά του Πειραιά [Μάνος Χατζιδάκις]
TTITLE1=Έγινε παρεξήγηση [Μάνος Χατζιδάκις]
TTITLE2=Νυχτερινός περίπατος
TTITLE3=Κυρ Μιχάλης [Ιάκωβος Καμπανέλλης]
TTITLE4=Κάθε κήπος (Οδός ονείρων)[Μάνος Χατζιδάκις]
TTITLE5=Το πάρτυ
TTITLE6=Η τιμωρία [Μάνος Χατζιδάκις]
TTITLE7=Υμηττός [Μάνος Χατζιδάκις]
TTITLE8=Το φεγγάρι είναι κόκκινο [Μάνος Χατζιδάκις]
TTITLE9=Ευρυδίκη [Μάνος Χατζιδάκις]
TTITLE10=Κυρ Αντώνης [Μάνος Χατζιδάκις]
TTITLE11=Φέρτε μου ένα μαντολίνο [Μάνος Χατζιδάκις]
TTITLE12=Ο ταχυδρόμος πέθανε [Μάνος Χατζιδάκις]
TTITLE13=Η πέτρα [Μάνος Χατζιδάκις]
TTITLE14=Το τριαντάφυλλο [Φ.Γ.Λόρκα-Α.Σολομός,Ά.Δασκαλό/λος]
EXTD=
EXTT0=
EXTT1=
EXTT2=
EXTT3=
EXTT4=
EXTT5=
EXTT6=
EXTT7=
EXTT8=
EXTT9=
EXTT10=
EXTT11=
EXTT12=
EXTT13=
EXTT14=
PLAYORDER=
